<?xml version="1.0" standalone="no"?>
<!DOCTYPE svg PUBLIC "-//W3C//DTD SVG 20010904//EN"
 "http://www.w3.org/TR/2001/REC-SVG-20010904/DTD/svg10.dtd">
<svg version="1.0" xmlns="http://www.w3.org/2000/svg"
 width="225.000000pt" height="225.000000pt" viewBox="0 0 225.000000 225.000000"
 preserveAspectRatio="xMidYMid meet">
<metadata>
Created by potrace 1.14, written by Peter Selinger 2001-2017
</metadata>
<g transform="translate(0.000000,225.000000) scale(0.100000,-0.100000)"
fill="#000000" stroke="none">
<path d="M938 2142 c-145 -76 -693 -397 -725 -425 -19 -16 -46 -51 -61 -76
l-27 -46 -3 -459 c-2 -406 -1 -464 14 -509 30 -90 76 -124 463 -347 194 -112
370 -209 390 -216 46 -17 136 -17 182 0 53 19 737 415 776 450 19 16 46 50 61
75 l27 46 0 480 0 480 -28 47 c-15 26 -44 61 -65 78 -40 34 -638 383 -737 431
-48 23 -74 29 -127 29 -58 0 -77 -5 -140 -38z m264 -81 c40 -21 213 -120 383
-219 263 -152 315 -186 340 -221 l30 -43 3 -450 c3 -439 2 -452 -18 -493 -12
-24 -35 -54 -53 -67 -18 -14 -192 -116 -387 -229 l-355 -204 -65 0 -65 0 -364
210 c-201 116 -377 223 -393 239 -59 58 -59 58 -56 547 l3 447 30 43 c26 36
79 70 365 236 184 107 358 205 385 219 75 36 128 32 217 -15z"/>
<path d="M1002 1845 c-34 -69 -65 -125 -70 -125 -4 0 -27 30 -52 66 -24 36
-48 68 -52 70 -4 3 -23 -27 -43 -66 l-35 -70 -55 35 c-31 19 -60 35 -65 35 -6
0 -10 -37 -10 -89 l0 -89 53 -6 c269 -32 554 -32 810 0 l47 6 0 89 c0 57 -4
89 -11 89 -6 0 -29 -13 -52 -28 -23 -16 -48 -32 -55 -36 -8 -5 -21 12 -41 57
-16 36 -33 67 -39 71 -5 3 -30 -26 -56 -64 -25 -39 -49 -70 -54 -70 -4 0 -36
56 -71 125 -35 69 -69 125 -75 125 -6 0 -39 -56 -74 -125z"/>
<path d="M512 1496 c-22 -20 -50 -56 -61 -79 -25 -50 -29 -25 -7 46 8 26 12
47 10 47 -19 0 -88 -46 -108 -72 -48 -64 -49 -62 48 -242 20 -38 26 -63 26
-112 0 -35 4 -65 9 -68 21 -13 55 42 132 217 51 115 84 167 125 194 33 21 53
4 24 -22 -20 -18 -27 -45 -12 -45 4 0 24 11 45 25 59 41 87 115 50 130 -10 4
-68 9 -129 12 l-111 6 -41 -37z"/>
<path d="M1420 1523 c-77 -12 -85 -24 -55 -83 14 -27 79 -80 97 -80 15 0 8 27
-12 45 -29 26 -9 43 24 22 42 -28 73 -77 141 -227 63 -138 98 -195 116 -184 5
3 9 34 9 68 0 52 6 74 30 117 73 131 82 157 71 192 -13 38 -51 77 -98 101 -18
9 -34 16 -37 16 -2 0 2 -21 10 -47 21 -68 18 -97 -5 -48 -10 22 -37 57 -59 78
-42 37 -43 37 -125 36 -45 -1 -93 -3 -107 -6z"/>
<path d="M995 1421 c7 -34 -10 -108 -26 -113 -6 -2 -37 5 -69 15 -49 16 -65
17 -112 8 -51 -11 -156 -66 -146 -76 2 -3 22 4 43 15 96 49 221 -8 191 -86 -4
-12 -11 -11 -38 6 -67 41 -180 32 -220 -17 -11 -15 -11 -16 7 -8 11 5 45 10
75 12 60 4 109 -17 130 -56 10 -20 10 -20 -27 1 -100 59 -233 0 -233 -104 0
-38 29 -107 54 -127 15 -13 18 -12 23 8 4 14 11 20 20 17 8 -3 26 -6 40 -6 22
0 24 -3 18 -30 -4 -16 -3 -30 0 -30 4 0 36 27 70 59 35 32 82 69 104 82 46 25
49 44 8 44 -15 -1 -27 3 -27 7 0 11 91 52 107 49 20 -3 36 76 25 121 -9 34 -8
42 9 59 25 25 24 81 -1 137 -22 49 -34 55 -25 13z m-201 -334 c28 -21 12 -59
-22 -55 -30 3 -41 30 -22 53 15 18 21 19 44 2z m-99 -7 c3 -6 -3 -22 -14 -35
-19 -25 -20 -25 -26 -5 -10 32 24 66 40 40z"/>
<path d="M1153 1438 c-34 -44 -42 -135 -15 -168 15 -19 17 -29 8 -61 -7 -27
-6 -49 3 -78 12 -41 31 -56 31 -24 0 14 3 14 15 -4 9 -13 33 -28 55 -34 49
-15 61 -37 18 -35 -45 2 -44 -17 2 -43 22 -12 67 -47 99 -77 65 -60 85 -68 75
-29 -5 22 -3 25 19 25 14 0 32 3 40 6 9 3 16 -3 20 -17 5 -20 8 -21 23 -8 25
20 54 89 54 127 0 104 -133 163 -233 104 l-37 -21 16 25 c35 53 131 71 197 38
l32 -17 -19 21 c-48 54 -154 64 -224 22 -27 -17 -34 -18 -38 -6 -11 30 2 61
35 83 42 28 94 30 146 3 55 -28 56 -16 0 19 -80 51 -176 61 -246 25 -22 -11
-29 -11 -45 1 -15 10 -19 26 -19 74 0 34 -1 61 -1 61 -1 0 -6 -6 -11 -12z
m270 -360 c15 -23 1 -48 -27 -48 -33 0 -46 38 -20 57 21 15 34 13 47 -9z m87
-3 c6 -8 9 -23 5 -35 -6 -20 -7 -20 -26 5 -28 35 -8 65 21 30z"/>
<path d="M1000 969 c-62 -26 -86 -74 -56 -115 16 -21 31 -13 38 19 6 33 23 18
23 -20 0 -33 -3 -38 -26 -41 -29 -3 -79 40 -79 68 0 9 -3 19 -6 23 -12 12 -61
-22 -107 -73 -40 -45 -49 -50 -66 -40 -29 15 -82 15 -109 1 -104 -56 23 -287
214 -388 34 -18 68 -40 75 -49 27 -33 111 -64 174 -64 63 0 147 31 174 64 7 9
41 31 75 49 174 93 300 303 226 377 -22 22 -88 27 -121 9 -17 -9 -26 -3 -66
41 -25 28 -59 58 -74 66 -29 14 -29 14 -45 -24 -14 -37 -46 -62 -80 -62 -18 0
-37 46 -29 71 9 29 25 23 32 -11 7 -39 33 -37 47 3 12 32 3 51 -37 81 -31 23
-137 32 -177 15z m-136 -200 c-3 -5 -10 -7 -15 -3 -5 3 -7 10 -3 15 3 5 10 7
15 3 5 -3 7 -10 3 -15z m440 0 c-3 -5 -10 -7 -15 -3 -5 3 -7 10 -3 15 3 5 10
7 15 3 5 -3 7 -10 3 -15z m-630 -79 c14 -74 102 -118 195 -100 58 11 171 61
191 85 10 13 16 11 45 -10 53 -41 153 -77 215 -78 87 0 142 39 157 113 6 33
17 39 27 14 9 -23 7 -66 -3 -60 -4 3 -19 -6 -32 -20 -82 -88 -248 -90 -367 -5
l-28 19 -44 -29 c-112 -75 -271 -68 -349 15 -13 14 -28 23 -32 20 -10 -6 -12
37 -3 60 9 22 20 12 28 -24z m174 7 c4 -21 -27 -35 -38 -17 -12 19 0 42 19 38
9 -2 17 -11 19 -21z m102 13 c0 -5 -7 -10 -16 -10 -8 0 -12 5 -9 10 3 6 10 10
16 10 5 0 9 -4 9 -10z m270 0 c0 -5 -4 -10 -10 -10 -5 0 -10 5 -10 10 0 6 5
10 10 10 6 0 10 -4 10 -10z m119 -4 c9 -10 8 -16 -4 -26 -19 -16 -41 1 -32 24
8 20 21 20 36 2z"/>
</g>
</svg>
